# xmcd
#
# Track frame offsets:
#	150
#	18998
#	36008
#	52005
#	66696
#	80485
#	95724
#	111592
#	128741
#	143185
#	160989
#	179392
#	197349
#	209941
#	224342
#	244675
#	257471
#	273157
#	288917
#
# Disc length: 4102 seconds
#
# Revision: 1
# Processed by: cddbd v1.5.2PL0 Copyright (c) Steve Scherf et al.
# Submitted via: audiograbber 1.83.01
#
DISCID=27100413
DTITLE=Various Artist - Promo Only Country Radio February 2008
DYEAR=2008
DGENRE=Country
TTITLE0=Kenny Chesney - Shiftwork
TTITLE1=Josh Turner - Another Try
TTITLE2=Carrie Underwood - All-American Girl
TTITLE3=Rockie Lynne - I Can't Believe It's Me
TTITLE4=Miranda Lambert - Gunpowder and Lead
TTITLE5=Joe Nichols - It Ain't No Crime
TTITLE6=Jypsi - I Don't Love You Like That
TTITLE7=Emma Mae Jacob - What If We Fly
TTITLE8=Townsend O'Donnel - Cowboys Want It (Cowgirls Got It)
TTITLE9=Tracy Lawrence - Til I Was A Daddy Too
TTITLE10=Charlie Allen - See If I Care
TTITLE11=Collin Raye - Quitters
TTITLE12=Wild Horses - Viva Viagra
TTITLE13=Kanee Welch Kaplin - Dark Boogie #7
TTITLE14=Tommy Alverson - Country To The Bone
TTITLE15=Amy Lavere - Time Is A Train
TTITLE16=The Gougers - Everybody Knows
TTITLE17=Bruce Robison - Lifeline
TTITLE18=Delana Stevens - Good Enough For Me
EXTD=
EXTT0=
EXTT1=
EXTT2=
EXTT3=
EXTT4=
EXTT5=
EXTT6=
EXTT7=
EXTT8=
EXTT9=
EXTT10=
EXTT11=
EXTT12=
EXTT13=
EXTT14=
EXTT15=
EXTT16=
EXTT17=
EXTT18=
PLAYORDER=
